<svg width="240" height="31" viewBox="0 0 240 31" fill="none" xmlns="http://www.w3.org/2000/svg">
<path d="M0.1875 0.78125L4.46875 0.78125L14.1406 18.2344L14.1406 0.78125L17.4375 0.78125L17.4375 23H13.1562L3.48437 5.78125L3.48437 23H0.1875L0.1875 0.78125ZM21.3437 12.625C21.3437 11.5521 21.6042 10.5781 22.125 9.70313C22.6562 8.82813 23.3646 8.13021 24.25 7.60938C25.1354 7.07813 26.1146 6.8125 27.1875 6.8125L36.2188 6.8125L36.2187 23L32.9219 23V10.1094H27.1875C26.4896 10.1094 25.8906 10.3594 25.3906 10.8594C24.8906 11.349 24.6406 11.9479 24.6406 12.6563L24.6406 17.125C24.6406 17.8333 24.8906 18.4427 25.3906 18.9531C25.8906 19.4531 26.4896 19.7031 27.1875 19.7031H31.0469V23H27.1875C26.1146 23 25.1354 22.7396 24.25 22.2188C23.3646 21.6875 22.6562 20.9792 22.125 20.0938C21.6042 19.2083 21.3437 18.2292 21.3437 17.1563L21.3437 12.625ZM39.5938 2.40625C39.5938 1.84375 39.7917 1.36458 40.1875 0.96875C40.5833 0.572917 41.0625 0.375 41.625 0.375C42.1875 0.375 42.6667 0.572917 43.0625 0.96875C43.4583 1.36458 43.6562 1.84375 43.6562 2.40625C43.6562 2.96875 43.4583 3.44792 43.0625 3.84375C42.6667 4.23958 42.1875 4.4375 41.625 4.4375C41.0625 4.4375 40.5833 4.23958 40.1875 3.84375C39.7917 3.44792 39.5938 2.96875 39.5938 2.40625ZM39.9688 6.8125H43.2812L43.2812 23H39.9687L39.9688 6.8125ZM47.0312 11.3438C47.0312 10.5104 47.2396 9.75 47.6562 9.0625C48.0833 8.375 48.6458 7.82813 49.3438 7.42188C50.0521 7.01563 50.8333 6.8125 51.6875 6.8125L55.2969 6.8125L55.2969 10.0938H51.6875C51.3125 10.0938 50.9896 10.224 50.7187 10.4844C50.4583 10.7344 50.3281 11.0417 50.3281 11.4063V23L47.0312 23V11.3438ZM57.8125 12.6563C57.8125 11.5833 58.0729 10.6042 58.5937 9.71875C59.125 8.83333 59.8333 8.13021 60.7187 7.60938C61.6042 7.07813 62.5833 6.8125 63.6562 6.8125L67.1875 6.8125C68.2604 6.8125 69.2396 7.07813 70.125 7.60938C71.0104 8.13021 71.7135 8.83333 72.2344 9.71875C72.7656 10.6042 73.0312 11.5833 73.0312 12.6563V17.1563C73.0312 18.2292 72.7656 19.2083 72.2344 20.0938C71.7135 20.9792 71.0104 21.6875 70.125 22.2188C69.2396 22.7396 68.2604 23 67.1875 23H63.6562C62.5833 23 61.6042 22.7396 60.7187 22.2188C59.8333 21.6875 59.125 20.9792 58.5937 20.0938C58.0729 19.2083 57.8125 18.2292 57.8125 17.1563V12.6563ZM61.1094 17.125C61.1094 17.8333 61.3594 18.4427 61.8594 18.9531C62.3594 19.4531 62.9583 19.7031 63.6562 19.7031H67.1875C67.8958 19.7031 68.4948 19.4531 68.9844 18.9531C69.4844 18.4427 69.7344 17.8333 69.7344 17.125V12.6875C69.7344 11.9792 69.4844 11.375 68.9844 10.875C68.4948 10.3646 67.8958 10.1094 67.1875 10.1094H63.6562C62.9583 10.1094 62.3594 10.3646 61.8594 10.875C61.3594 11.375 61.1094 11.9792 61.1094 12.6875V17.125ZM76.4688 0.78125L79.7656 0.78125V19.7031H85.5C86.2083 19.7031 86.8073 19.4531 87.2969 18.9531C87.7969 18.4531 88.0469 17.8542 88.0469 17.1563V12.6875C88.0469 11.9792 87.7969 11.375 87.2969 10.875C86.8073 10.3646 86.2083 10.1094 85.5 10.1094H81.6406V6.8125H85.5C86.5729 6.8125 87.5521 7.07813 88.4375 7.60938C89.3229 8.13021 90.026 8.83333 90.5469 9.71875C91.0781 10.6042 91.3438 11.5833 91.3438 12.6563V17.1875C91.3438 18.25 91.0781 19.224 90.5469 20.1094C90.026 20.9844 89.3229 21.6875 88.4375 22.2188C87.5521 22.7396 86.5729 23 85.5 23H79.7656C78.8594 23 78.0833 22.6771 77.4375 22.0313C76.7917 21.3854 76.4688 20.6094 76.4688 19.7031V0.78125ZM94.7188 2.40625C94.7188 1.84375 94.9167 1.36458 95.3125 0.96875C95.7083 0.572917 96.1875 0.375 96.75 0.375C97.3125 0.375 97.7917 0.572917 98.1875 0.96875C98.5833 1.36458 98.7812 1.84375 98.7812 2.40625C98.7812 2.96875 98.5833 3.44792 98.1875 3.84375C97.7917 4.23958 97.3125 4.4375 96.75 4.4375C96.1875 4.4375 95.7083 4.23958 95.3125 3.84375C94.9167 3.44792 94.7188 2.96875 94.7188 2.40625ZM95.0938 6.8125L98.4062 6.8125L98.4062 23H95.0937L95.0938 6.8125ZM147.192 30.328C146.659 30.328 146.083 30.1893 145.464 29.912C144.867 29.656 144.366 29.2613 143.96 28.728C143.576 28.216 143.406 27.5867 143.448 26.84C143.47 26.392 143.512 25.944 143.576 25.496C143.662 25.0693 143.832 24.5467 144.088 23.928C144.366 23.3093 144.792 22.5093 145.368 21.528C145.966 20.5253 146.787 19.256 147.832 17.72C148.899 16.184 150.254 14.264 151.896 11.96C152.686 10.872 153.24 9.976 153.56 9.272C153.88 8.568 154.04 8.01333 154.04 7.608C154.04 7.26667 153.944 7.02133 153.752 6.872C153.56 6.72267 153.315 6.648 153.016 6.648C152.59 6.648 152.078 6.776 151.48 7.032C150.904 7.288 150.35 7.61867 149.816 8.024C148.814 8.77067 147.79 9.624 146.744 10.584C145.699 11.5227 144.686 12.4933 143.704 13.496C142.723 14.4987 141.806 15.4693 140.952 16.408C140.248 17.5387 139.587 18.5733 138.968 19.512C138.35 20.4293 137.902 21.0907 137.624 21.496C137.539 21.6453 137.4 21.752 137.208 21.816C137.038 21.88 136.867 21.912 136.696 21.912C136.398 21.912 136.131 21.8373 135.896 21.688C135.662 21.5173 135.608 21.3147 135.736 21.08C135.736 21.08 135.864 20.856 136.12 20.408C136.376 19.96 136.707 19.3627 137.112 18.616C137.539 17.8693 137.987 17.048 138.456 16.152C138.947 15.256 139.416 14.3707 139.864 13.496C140.312 12.6 140.696 11.7787 141.016 11.032C141.358 10.2853 141.582 9.69867 141.688 9.272C141.816 8.71733 141.88 8.20533 141.88 7.736C141.88 7.26667 141.795 6.89333 141.624 6.616C141.454 6.31733 141.155 6.168 140.728 6.168C140.451 6.168 140.099 6.25333 139.672 6.424C139.246 6.59467 138.744 6.86133 138.168 7.224C137.187 7.864 136.078 8.70667 134.84 9.752C133.624 10.776 132.355 11.928 131.032 13.208C129.731 14.4667 128.43 15.768 127.128 17.112C125.848 18.4347 124.654 19.7253 123.544 20.984C123.48 21.048 123.406 21.08 123.32 21.08C122.51 22.1253 121.902 22.808 121.496 23.128C121.112 23.448 120.92 23.512 120.92 23.32C120.92 22.8933 121.507 21.944 122.68 20.472C123.598 19.3413 124.579 18.1467 125.624 16.888C126.691 15.608 127.683 14.3387 128.6 13.08C129.539 11.8213 130.286 10.648 130.84 9.56C131.395 8.472 131.672 7.55467 131.672 6.808C131.672 5.80533 131.256 5.112 130.424 4.728C129.614 4.344 128.579 4.152 127.32 4.152C126.318 4.152 125.24 4.248 124.088 4.44C122.958 4.61067 121.827 4.83467 120.696 5.112C119.587 5.368 118.563 5.64533 117.624 5.944C116.686 6.22133 115.928 6.456 115.352 6.648C114.414 6.968 113.55 7.30933 112.76 7.672C111.971 8.03467 111.342 8.408 110.872 8.792C110.424 9.15467 110.2 9.528 110.2 9.912C110.2 10.2747 110.446 10.6267 110.936 10.968C110.979 10.9893 111 11.0213 111 11.064C111 11.1067 110.947 11.128 110.84 11.128C110.734 11.128 110.627 11.096 110.52 11.032C109.902 10.6053 109.592 9.98667 109.592 9.176C109.592 8.57867 109.795 7.94933 110.2 7.288C110.606 6.62667 111.235 6.06133 112.088 5.592C113.176 4.97333 114.392 4.41867 115.736 3.928C117.08 3.416 118.467 2.98933 119.896 2.648C121.326 2.28533 122.734 2.01867 124.12 1.848C125.528 1.656 126.83 1.56 128.024 1.56C129.603 1.56 130.84 1.72 131.736 2.04C132.654 2.36 133.304 2.79733 133.688 3.352C134.072 3.90667 134.264 4.52533 134.264 5.208C134.264 6.12533 133.987 7.096 133.432 8.12C132.899 9.144 132.302 10.0613 131.64 10.872C131.043 11.5973 130.275 12.504 129.336 13.592C128.419 14.68 127.512 15.7787 126.616 16.888C127.918 15.5227 129.24 14.1893 130.584 12.888C131.928 11.5867 133.23 10.4027 134.488 9.336C135.747 8.26933 136.878 7.40533 137.88 6.744C138.968 6.04 139.918 5.53867 140.728 5.24C141.56 4.92 142.264 4.76 142.84 4.76C143.651 4.76 144.227 5.00533 144.568 5.496C144.931 5.98667 145.112 6.59467 145.112 7.32C145.112 8.088 144.931 8.92 144.568 9.816C144.334 10.392 144.024 11.0533 143.64 11.8C143.256 12.5253 142.83 13.2827 142.36 14.072C143.47 12.92 144.643 11.768 145.88 10.616C147.139 9.464 148.355 8.45067 149.528 7.576C150.552 6.82933 151.63 6.21067 152.76 5.72C153.891 5.22933 154.851 4.984 155.64 4.984C156.11 4.984 156.483 5.09067 156.76 5.304C157.038 5.496 157.176 5.816 157.176 6.264C157.176 6.648 157.048 7.13867 156.792 7.736C156.536 8.33333 156.131 9.048 155.576 9.88C153.4 13.1013 151.63 15.8747 150.264 18.2C148.92 20.504 147.928 22.424 147.288 23.96C146.648 25.496 146.286 26.7227 146.2 27.64C146.179 27.7467 146.168 27.8533 146.168 27.96C146.168 28.0667 146.168 28.1733 146.168 28.28C146.168 28.8773 146.264 29.2933 146.456 29.528C146.67 29.784 146.904 29.912 147.16 29.912C147.48 29.912 147.779 29.7947 148.056 29.56C148.142 29.5173 148.195 29.496 148.216 29.496C148.323 29.496 148.408 29.5493 148.472 29.656C148.536 29.7627 148.515 29.8693 148.408 29.976C148.11 30.2107 147.704 30.328 147.192 30.328ZM153.791 23.032C153.13 23.032 152.618 22.8293 152.255 22.424C151.893 21.9973 151.711 21.4533 151.711 20.792C151.711 20.1733 151.871 19.4907 152.191 18.744C152.533 17.9973 153.066 17.24 153.791 16.472C154.538 15.6613 155.466 15.0107 156.575 14.52C157.685 14.008 158.741 13.752 159.743 13.752C160.554 13.752 161.247 13.9333 161.823 14.296C162.399 14.6373 162.783 15.0747 162.975 15.608C163.21 15.608 163.498 15.672 163.839 15.8C164.202 15.928 164.383 16.1627 164.383 16.504C164.383 16.7387 164.266 17.0053 164.031 17.304C163.882 17.5173 163.615 17.8373 163.231 18.264C162.869 18.6907 162.527 19.1493 162.207 19.64C161.951 20.024 161.749 20.3867 161.599 20.728C161.45 21.048 161.375 21.3253 161.375 21.56C161.375 21.88 161.535 22.04 161.855 22.04C162.218 22.04 162.762 21.8373 163.487 21.432C164.277 20.984 165.034 20.472 165.759 19.896C166.485 19.32 167.05 18.8613 167.455 18.52C167.562 18.4347 167.637 18.392 167.679 18.392C167.765 18.392 167.807 18.4453 167.807 18.552C167.807 18.68 167.754 18.7973 167.647 18.904C167.455 19.0747 167.082 19.3947 166.527 19.864C165.973 20.3333 165.333 20.824 164.607 21.336C163.903 21.848 163.21 22.264 162.527 22.584C162.186 22.7333 161.866 22.8507 161.567 22.936C161.29 23 161.034 23.032 160.799 23.032C160.223 23.032 159.786 22.872 159.487 22.552C159.189 22.2107 159.039 21.7733 159.039 21.24C159.039 21.0267 159.071 20.8027 159.135 20.568C159.199 20.3333 159.274 20.0987 159.359 19.864L159.583 19.32C159.029 20.0027 158.474 20.5787 157.919 21.048C157.365 21.496 156.81 21.8907 156.255 22.232C155.786 22.5093 155.338 22.712 154.911 22.84C154.506 22.968 154.133 23.032 153.791 23.032ZM154.783 22.2C155.167 22.2 155.722 21.976 156.447 21.528C157.173 21.0587 158.015 20.344 158.975 19.384C159.103 19.256 159.338 19.032 159.679 18.712C160.042 18.3707 160.426 17.9973 160.831 17.592C161.237 17.1653 161.578 16.7493 161.855 16.344C162.154 15.9173 162.303 15.5653 162.303 15.288C162.303 14.8827 161.951 14.68 161.247 14.68C160.629 14.68 159.882 14.9253 159.007 15.416C158.154 15.8853 157.333 16.5893 156.543 17.528C155.733 18.488 155.135 19.32 154.751 20.024C154.389 20.7067 154.207 21.2293 154.207 21.592C154.207 21.9973 154.399 22.2 154.783 22.2ZM171.57 17.784C171.442 17.784 171.378 17.624 171.378 17.304C171.378 17.048 171.421 16.7813 171.506 16.504C171.591 16.2267 171.709 16.0773 171.858 16.056C172.733 15.9707 173.522 15.9173 174.226 15.896C174.951 15.8533 175.581 15.832 176.114 15.832C177.095 15.832 177.863 15.864 178.418 15.928C178.994 15.992 179.421 16.0453 179.698 16.088C179.954 16.1307 180.082 16.248 180.082 16.44C180.082 16.5893 179.975 16.664 179.762 16.664C178.653 16.6853 177.671 16.76 176.818 16.888C175.965 16.9947 175.133 17.1333 174.322 17.304C173.511 17.4533 172.605 17.6133 171.602 17.784H171.57ZM181.975 23.16C181.122 23.16 180.525 22.9573 180.183 22.552C179.842 22.1253 179.671 21.6347 179.671 21.08C179.671 20.5467 179.767 19.9813 179.959 19.384C180.173 18.7867 180.407 18.2213 180.663 17.688C180.386 17.9867 180.119 18.264 179.863 18.52C179.607 18.7547 179.394 18.9467 179.223 19.096C179.138 19.16 179.053 19.192 178.967 19.192C178.861 19.192 178.807 19.1387 178.807 19.032C178.807 18.9253 178.871 18.8293 178.999 18.744C179.447 18.36 179.97 17.8373 180.567 17.176C181.165 16.5147 181.719 15.8427 182.231 15.16C182.658 14.6053 183.17 13.912 183.767 13.08C184.365 12.248 184.973 11.3733 185.591 10.456C186.21 9.51733 186.743 8.664 187.191 7.896C187.255 7.768 187.319 7.608 187.383 7.416C187.469 7.224 187.511 7.05333 187.511 6.904C187.511 6.69067 187.426 6.584 187.255 6.584C187.213 6.584 187.085 6.62667 186.871 6.712C186.679 6.79733 186.487 6.88267 186.295 6.968C186.103 7.05333 185.986 7.096 185.943 7.096C185.773 7.096 185.783 7 185.975 6.808C186.317 6.552 186.743 6.30667 187.255 6.072C187.789 5.816 188.333 5.60267 188.887 5.432C189.442 5.26133 189.911 5.176 190.295 5.176C191.191 5.176 191.639 5.464 191.639 6.04C191.639 6.33867 191.501 6.73333 191.223 7.224C190.989 7.608 190.647 8.06667 190.199 8.6C189.751 9.112 189.25 9.66667 188.695 10.264C188.162 10.84 187.639 11.416 187.127 11.992C186.615 12.5467 186.189 13.0373 185.847 13.464C185.762 13.5707 185.549 13.848 185.207 14.296C184.887 14.744 184.514 15.288 184.087 15.928C183.682 16.5467 183.266 17.208 182.839 17.912C182.434 18.5947 182.093 19.256 181.815 19.896C181.559 20.5147 181.431 21.0373 181.431 21.464C181.431 22.04 181.709 22.328 182.263 22.328C182.626 22.328 183.085 22.2213 183.639 22.008C184.173 21.816 184.727 21.528 185.303 21.144C185.901 20.7387 186.477 20.312 187.031 19.864C187.607 19.416 188.109 18.9893 188.535 18.584C188.983 18.1787 189.314 17.8693 189.527 17.656C189.655 17.528 189.762 17.464 189.847 17.464C189.933 17.464 189.975 17.5173 189.975 17.624C189.975 17.7307 189.922 17.8373 189.815 17.944C189.474 18.3067 189.005 18.776 188.407 19.352C187.831 19.928 187.181 20.5147 186.455 21.112C185.751 21.688 185.015 22.1787 184.247 22.584C183.479 22.968 182.722 23.16 181.975 23.16ZM190.902 23.288C190.07 23.288 189.44 23.0853 189.014 22.68C188.608 22.2533 188.405 21.7093 188.405 21.048C188.405 20.6427 188.459 20.248 188.566 19.864C188.672 19.48 188.79 19.1387 188.918 18.84C188.768 18.9893 188.619 19.128 188.47 19.256C188.341 19.3627 188.235 19.448 188.149 19.512C188.064 19.576 187.989 19.608 187.925 19.608C187.84 19.608 187.797 19.5547 187.797 19.448C187.797 19.2987 187.904 19.128 188.117 18.936C188.864 18.3173 189.451 17.7733 189.878 17.304C190.304 16.8133 190.752 16.3653 191.222 15.96C192.011 15.2773 192.854 14.744 193.75 14.36C194.646 13.976 195.542 13.784 196.438 13.784C197.376 13.784 198.112 14.008 198.646 14.456C199.179 14.904 199.446 15.5653 199.446 16.44C199.446 16.9307 199.296 17.496 198.998 18.136C198.72 18.776 198.272 19.4373 197.654 20.12C197.398 20.3973 197.11 20.6747 196.79 20.952C196.47 21.208 196.192 21.4 195.958 21.528C197.003 21.4213 197.984 21.0587 198.902 20.44C199.819 19.8 200.64 19.1707 201.366 18.552C201.472 18.488 201.547 18.456 201.59 18.456C201.696 18.456 201.75 18.5093 201.75 18.616C201.75 18.7013 201.696 18.7973 201.59 18.904C200.672 19.7787 199.68 20.5147 198.614 21.112C197.568 21.7093 196.406 21.9973 195.126 21.976C194.379 22.3813 193.643 22.7013 192.918 22.936C192.214 23.1707 191.542 23.288 190.902 23.288ZM192.342 22.392C192.64 22.392 192.96 22.3387 193.302 22.232C193.643 22.1253 193.984 21.9867 194.326 21.816C194.198 21.816 194.07 21.752 193.942 21.624C193.835 21.496 193.782 21.3253 193.782 21.112C193.782 20.6853 193.942 20.248 194.262 19.8C194.582 19.352 194.976 18.968 195.446 18.648C195.915 18.328 196.374 18.168 196.822 18.168C197.078 18.168 197.312 18.2427 197.526 18.392C197.76 18.52 197.888 18.7013 197.91 18.936C198.272 18.5307 198.518 18.0933 198.646 17.624C198.795 17.1547 198.87 16.7173 198.87 16.312C198.87 15.7573 198.688 15.3413 198.326 15.064C197.984 14.7653 197.515 14.616 196.918 14.616C196.342 14.616 195.702 14.8187 194.998 15.224C194.315 15.6293 193.664 16.152 193.046 16.792C192.448 17.432 191.947 18.1253 191.542 18.872C191.158 19.6187 190.966 20.3333 190.966 21.016C190.966 21.9333 191.424 22.392 192.342 22.392ZM204.291 23.32C203.373 23.32 202.595 23.096 201.955 22.648C201.336 22.1787 201.027 21.5067 201.027 20.632C201.027 19.6933 201.251 18.8187 201.699 18.008C202.168 17.1973 202.776 16.4933 203.523 15.896C204.269 15.2773 205.08 14.7973 205.955 14.456C206.851 14.1147 207.736 13.944 208.611 13.944C209.485 13.944 210.125 14.104 210.531 14.424C210.957 14.744 211.171 15.128 211.171 15.576C211.171 15.8747 211.085 16.1733 210.915 16.472C210.744 16.7493 210.509 16.888 210.211 16.888C210.019 16.888 209.923 16.8133 209.923 16.664C209.923 16.5573 209.955 16.4613 210.019 16.376C210.275 15.928 210.403 15.5333 210.403 15.192C210.403 14.7653 210.179 14.552 209.731 14.552C209.368 14.552 208.899 14.6907 208.323 14.968C207.853 15.1813 207.352 15.512 206.819 15.96C206.307 16.3867 205.827 16.888 205.379 17.464C204.931 18.0187 204.557 18.5947 204.259 19.192C203.981 19.768 203.843 20.312 203.843 20.824C203.843 21.3147 203.981 21.72 204.259 22.04C204.536 22.36 204.952 22.52 205.507 22.52C205.869 22.52 206.296 22.4347 206.787 22.264C207.299 22.0933 207.864 21.816 208.483 21.432C208.995 21.112 209.528 20.728 210.083 20.28C210.659 19.832 211.213 19.3733 211.747 18.904C212.28 18.4347 212.739 18.0293 213.123 17.688C213.251 17.56 213.357 17.496 213.443 17.496C213.528 17.496 213.571 17.5493 213.571 17.656C213.571 17.8053 213.507 17.9333 213.379 18.04C212.824 18.552 212.216 19.1067 211.555 19.704C210.893 20.28 210.2 20.824 209.475 21.336C208.771 21.848 208.077 22.264 207.395 22.584C206.285 23.0747 205.251 23.32 204.291 23.32ZM213.823 23.032C213.161 23.032 212.649 22.8293 212.287 22.424C211.924 21.9973 211.742 21.4533 211.742 20.792C211.742 20.1733 211.902 19.4907 212.223 18.744C212.564 17.9973 213.097 17.24 213.823 16.472C214.569 15.6613 215.497 15.0107 216.607 14.52C217.716 14.008 218.772 13.752 219.775 13.752C220.585 13.752 221.279 13.9333 221.855 14.296C222.431 14.6373 222.815 15.0747 223.007 15.608C223.241 15.608 223.529 15.672 223.871 15.8C224.233 15.928 224.415 16.1627 224.415 16.504C224.415 16.7387 224.297 17.0053 224.063 17.304C223.913 17.5173 223.647 17.8373 223.263 18.264C222.9 18.6907 222.559 19.1493 222.239 19.64C221.983 20.024 221.78 20.3867 221.631 20.728C221.481 21.048 221.407 21.3253 221.407 21.56C221.407 21.88 221.567 22.04 221.887 22.04C222.249 22.04 222.793 21.8373 223.519 21.432C224.308 20.984 225.065 20.472 225.791 19.896C226.516 19.32 227.081 18.8613 227.487 18.52C227.593 18.4347 227.668 18.392 227.711 18.392C227.796 18.392 227.839 18.4453 227.839 18.552C227.839 18.68 227.785 18.7973 227.679 18.904C227.487 19.0747 227.113 19.3947 226.559 19.864C226.004 20.3333 225.364 20.824 224.639 21.336C223.935 21.848 223.241 22.264 222.559 22.584C222.217 22.7333 221.897 22.8507 221.599 22.936C221.321 23 221.065 23.032 220.831 23.032C220.255 23.032 219.817 22.872 219.519 22.552C219.22 22.2107 219.071 21.7733 219.071 21.24C219.071 21.0267 219.103 20.8027 219.167 20.568C219.231 20.3333 219.305 20.0987 219.391 19.864L219.615 19.32C219.06 20.0027 218.505 20.5787 217.951 21.048C217.396 21.496 216.841 21.8907 216.286 22.232C215.817 22.5093 215.369 22.712 214.943 22.84C214.537 22.968 214.164 23.032 213.823 23.032ZM214.815 22.2C215.199 22.2 215.753 21.976 216.479 21.528C217.204 21.0587 218.047 20.344 219.007 19.384C219.135 19.256 219.369 19.032 219.711 18.712C220.073 18.3707 220.457 17.9973 220.863 17.592C221.268 17.1653 221.609 16.7493 221.887 16.344C222.185 15.9173 222.335 15.5653 222.335 15.288C222.335 14.8827 221.983 14.68 221.279 14.68C220.66 14.68 219.913 14.9253 219.039 15.416C218.185 15.8853 217.364 16.5893 216.575 17.528C215.764 18.488 215.167 19.32 214.783 20.024C214.42 20.7067 214.239 21.2293 214.239 21.592C214.239 21.9973 214.431 22.2 214.815 22.2ZM230.225 23.16C229.372 23.16 228.775 22.9573 228.433 22.552C228.092 22.1253 227.921 21.6347 227.921 21.08C227.921 20.5467 228.017 19.9813 228.209 19.384C228.423 18.7867 228.657 18.2213 228.913 17.688C228.636 17.9867 228.369 18.264 228.113 18.52C227.857 18.7547 227.644 18.9467 227.473 19.096C227.388 19.16 227.303 19.192 227.217 19.192C227.111 19.192 227.057 19.1387 227.057 19.032C227.057 18.9253 227.121 18.8293 227.249 18.744C227.697 18.36 228.22 17.8373 228.817 17.176C229.415 16.5147 229.969 15.8427 230.481 15.16C230.908 14.6053 231.42 13.912 232.017 13.08C232.615 12.248 233.223 11.3733 233.841 10.456C234.46 9.51733 234.993 8.664 235.441 7.896C235.505 7.768 235.569 7.608 235.633 7.416C235.719 7.224 235.761 7.05333 235.761 6.904C235.761 6.69067 235.676 6.584 235.505 6.584C235.463 6.584 235.335 6.62667 235.121 6.712C234.929 6.79733 234.737 6.88267 234.545 6.968C234.353 7.05333 234.236 7.096 234.193 7.096C234.023 7.096 234.033 7 234.225 6.808C234.567 6.552 234.993 6.30667 235.505 6.072C236.039 5.816 236.583 5.60267 237.137 5.432C237.692 5.26133 238.161 5.176 238.545 5.176C239.441 5.176 239.889 5.464 239.889 6.04C239.889 6.33867 239.751 6.73333 239.473 7.224C239.239 7.608 238.897 8.06667 238.449 8.6C238.001 9.112 237.5 9.66667 236.945 10.264C236.412 10.84 235.889 11.416 235.377 11.992C234.865 12.5467 234.439 13.0373 234.097 13.464C234.012 13.5707 233.799 13.848 233.457 14.296C233.137 14.744 232.764 15.288 232.337 15.928C231.932 16.5467 231.516 17.208 231.089 17.912C230.684 18.5947 230.343 19.256 230.065 19.896C229.809 20.5147 229.681 21.0373 229.681 21.464C229.681 22.04 229.959 22.328 230.513 22.328C230.876 22.328 231.335 22.2213 231.889 22.008C232.423 21.816 232.977 21.528 233.553 21.144C234.151 20.7387 234.727 20.312 235.281 19.864C235.857 19.416 236.359 18.9893 236.785 18.584C237.233 18.1787 237.564 17.8693 237.777 17.656C237.905 17.528 238.012 17.464 238.097 17.464C238.183 17.464 238.225 17.5173 238.225 17.624C238.225 17.7307 238.172 17.8373 238.065 17.944C237.724 18.3067 237.255 18.776 236.657 19.352C236.081 19.928 235.431 20.5147 234.705 21.112C234.001 21.688 233.265 22.1787 232.497 22.584C231.729 22.968 230.972 23.16 230.225 23.16Z" fill="white"/>
</svg>
